<svg width="256" height="256" viewBox="0 0 256 256" xmlns="http://www.w3.org/2000/svg">
  <defs>
    <linearGradient id="bg" x1="24" y1="20" x2="232" y2="236" gradientUnits="userSpaceOnUse">
      <stop offset="0" stop-color="#0F172A"/>
      <stop offset="0.52" stop-color="#1D4ED8"/>
      <stop offset="1" stop-color="#7C3AED"/>
    </linearGradient>
  </defs>

  <rect x="18" y="18" width="220" height="220" rx="50" fill="url(#bg)"/>
  <rect x="30" y="30" width="196" height="196" rx="38" fill="#081122" fill-opacity="0.20" stroke="#C7D2FE" stroke-opacity="0.24" stroke-width="2"/>

  <!-- Orbit ring -->
  <circle cx="128" cy="128" r="64" fill="none" stroke="#C7D2FE" stroke-opacity="0.24" stroke-width="10"/>
  <circle cx="128" cy="128" r="64" fill="none" stroke="#FFFFFF" stroke-opacity="0.10" stroke-width="2"/>

  <!-- LM monogram -->
  <rect x="84" y="84" width="14" height="76" rx="7" fill="#F8FAFC"/>
  <rect x="84" y="146" width="36" height="14" rx="7" fill="#F8FAFC"/>
  <rect x="108" y="92" width="12" height="68" rx="6" fill="#EAF0FF"/>
  <rect x="136" y="92" width="12" height="68" rx="6" fill="#EAF0FF"/>
  <polygon points="114,96 128,124 142,96 151,101 132,138 124,138 105,101" fill="#EAF0FF"/>

  <!-- Copilot spark / node -->
  <circle cx="184" cy="92" r="12" fill="#22D3EE"/>
  <path d="M184 70V52" stroke="#67E8F9" stroke-width="6" stroke-linecap="round"/>
  <path d="M202 92H220" stroke="#67E8F9" stroke-width="6" stroke-linecap="round"/>
  <path d="M196.7 79.3L209.5 66.5" stroke="#67E8F9" stroke-width="6" stroke-linecap="round"/>

  <!-- subtle terminal baseline -->
  <path d="M78 190H178" stroke="#E2E8F0" stroke-opacity="0.70" stroke-width="8" stroke-linecap="round"/>
</svg>
